<?xml version="1.0" encoding="UTF-8" standalone="no"?>
<!-- Created with Inkscape (http://www.inkscape.org/) -->

<svg
   width="52.916668mm"
   height="52.916668mm"
   viewBox="0 0 52.916668 52.916668"
   version="1.1"
   id="svg1"
   xml:space="preserve"
   inkscape:version="1.4 (86a8ad7, 2024-10-11)"
   sodipodi:docname="about_me.svg"
   xmlns:inkscape="http://www.inkscape.org/namespaces/inkscape"
   xmlns:sodipodi="http://sodipodi.sourceforge.net/DTD/sodipodi-0.dtd"
   xmlns="http://www.w3.org/2000/svg"
   xmlns:svg="http://www.w3.org/2000/svg"><sodipodi:namedview
     id="namedview1"
     pagecolor="#ffffff"
     bordercolor="#666666"
     borderopacity="1.0"
     inkscape:showpageshadow="2"
     inkscape:pageopacity="0.0"
     inkscape:pagecheckerboard="0"
     inkscape:deskcolor="#d1d1d1"
     inkscape:document-units="mm"
     inkscape:zoom="2.9290316"
     inkscape:cx="77.841428"
     inkscape:cy="93.887687"
     inkscape:window-width="1718"
     inkscape:window-height="1360"
     inkscape:window-x="1713"
     inkscape:window-y="0"
     inkscape:window-maximized="0"
     inkscape:current-layer="layer1" /><defs
     id="defs1" /><g
     inkscape:label="Layer 1"
     inkscape:groupmode="layer"
     id="layer1"><path
       style="display:inline;fill:none;stroke:#001ece;stroke-width:2.64583333;stroke-linecap:round;stroke-linejoin:miter;stroke-dasharray:none;stroke-opacity:1"
       d="m 2.9585194,23.248663 c 0,0 1.8710814,-3.523342 3.3806925,-4.745139 2.1441075,-1.735324 4.8340221,-3.273537 7.5923231,-3.291436 2.11697,-0.01374 4.159549,1.188369 5.859328,2.450312 1.983901,1.47288 4.716275,5.718734 4.716275,5.718734"
       id="path2"
       sodipodi:nodetypes="caaac" /><path
       style="fill:none;fill-opacity:1;stroke:#001ece;stroke-width:2.64583333;stroke-linecap:butt;stroke-linejoin:miter;stroke-dasharray:none;stroke-opacity:1"
       d="M 12.871767,2.7156556 C 10.933735,2.9767178 8.799774,5.0140543 9.228814,6.9436888 9.6718907,8.9364542 12.566535,10.684316 14.506893,10.049934 16.321897,9.4565359 17.406802,6.5906646 16.77403,4.78901 16.285932,3.3992739 14.331541,2.5190171 12.871767,2.7156556 Z"
       id="path3"
       sodipodi:nodetypes="ssaas" /><path
       style="fill:none;stroke:#001ece;stroke-width:2.64583333;stroke-linecap:butt;stroke-linejoin:miter;stroke-dasharray:none;stroke-opacity:1"
       d="M 33.810033,2.8804599 C 31.378381,2.8486049 33.26211,14.71184 33.332456,17.156191 c 0.03331,3.381429 -0.560658,5.783276 -0.435488,5.761294 2.327804,-0.408792 12.830074,-0.291508 13.501329,-0.876023 C 47.565291,21.025265 46.593947,5.398227 46.894739,3.6208745 46.998191,3.0095857 38.11793,2.9368941 33.810033,2.8804599 Z"
       id="path4"
       sodipodi:nodetypes="ssssss" /><path
       style="display:inline;fill:none;stroke:#001ece;stroke-width:2.64583333;stroke-linecap:round;stroke-linejoin:round;stroke-dasharray:none;stroke-opacity:1"
       d="m 35.899645,9.0190681 c 0.461314,-0.4436188 0.908672,-1.4686076 1.898751,-1.0266505 1.046029,0.4669322 0.919674,1.5385203 2.384478,1.6558879 1.154248,0.092484 1.832469,-0.8777902 2.605262,-1.313671"
       id="path5"
       sodipodi:nodetypes="cssc" /><path
       style="display:inline;fill:none;stroke:#001ece;stroke-width:2.64583333;stroke-linecap:round;stroke-linejoin:round;stroke-dasharray:none;stroke-opacity:1"
       d="m 37.000104,13.535481 c 1.130888,-0.388115 1.188319,-0.366709 2.107602,-0.281013 0.677112,0.06312 0.725098,1.936326 1.420679,1.639245 2.060555,-0.880057 2.236232,-1.043602 3.254908,-1.51435"
       id="path6"
       sodipodi:nodetypes="cssc" /><path
       style="display:inline;fill:none;stroke:#001ece;stroke-width:2.64583333;stroke-linecap:round;stroke-linejoin:round;stroke-dasharray:none;stroke-opacity:1"
       d="m 37.025648,19.031669 c 0.680469,-0.338987 1.34787,-0.625438 1.92083,-0.44157 0.480608,0.154231 0.755251,0.835034 1.258475,0.838983 1.487547,0.01167 1.928393,-0.34441 2.828726,-0.511823"
       id="path7"
       sodipodi:nodetypes="cssc" /><path
       style="display:inline;fill:none;stroke:#001ece;stroke-width:2.64583333;stroke-linecap:round;stroke-linejoin:round;stroke-dasharray:none;stroke-opacity:1"
       d="m 16.79836,30.224559 c -3.800965,4.417115 -6.8522148,7.738657 -9.7730238,12.395815 l -1.5299619,6.619427 5.5578217,-2.622793 c 3.754291,-4.017441 7.705827,-7.862293 10.83463,-12.427037 -1.218599,-1.73812 -2.956447,-3.059924 -5.089466,-3.965412 z"
       id="path8"
       sodipodi:nodetypes="cccccc" /><path
       style="fill:none;stroke:#001ece;stroke-width:2.64583333;stroke-linecap:butt;stroke-linejoin:round;stroke-opacity:1;stroke-dasharray:none"
       d="m 7.4014451,41.787939 4.7911869,3.619416"
       id="path9" /><path
       style="fill:none;stroke:#001ece;stroke-width:2.64583333;stroke-linecap:butt;stroke-linejoin:round;stroke-opacity:1;stroke-dasharray:none"
       d="m 14.220639,33.211455 5.211245,4.245488"
       id="path10" /><path
       style="fill:none;stroke:#001ece;stroke-width:2.64583333;stroke-linecap:round;stroke-linejoin:round;stroke-dasharray:none;stroke-opacity:1"
       d="m 29.618311,28.843377 c -0.511656,1.599964 -0.02449,5.929919 0.06624,7.475758 0.206698,3.521806 -1.060457,7.683347 -0.209747,7.793711 2.210429,0.286761 5.382829,-0.176703 5.409234,-0.515199 0.395254,-5.066872 0.594461,-11.868222 -0.176628,-14.732192 -0.0487,-0.180889 -4.68837,-1.275156 -5.089094,-0.02208 z"
       id="path11"
       sodipodi:nodetypes="ssssss" /><path
       style="fill:none;stroke:#001ece;stroke-width:2.64583333;stroke-linecap:round;stroke-linejoin:round;stroke-dasharray:none;stroke-opacity:1"
       d="m 33.934659,47.446703 c -0.529159,-0.71355 -3.173017,-0.118546 -4.305307,0.551961 -0.682715,0.40428 -0.860978,1.522924 -0.198711,1.959896 2.697406,1.779782 6.707468,0.459398 4.504018,-2.511857 z"
       id="path12"
       sodipodi:nodetypes="ssss" /><path
       style="fill:none;stroke:#001ece;stroke-width:2.64583333;stroke-linecap:round;stroke-linejoin:round;stroke-dasharray:none;stroke-opacity:1"
       d="m 40.14388,28.810258 c -0.974997,0.07812 -1.064056,3.641001 -0.436062,4.791306 0.449972,0.824219 1.436225,0.580153 2.186139,0.542839 1.213608,-0.06039 0.968082,-2.744562 3.433208,-1.225355 1.207102,0.743913 1.070277,2.770647 0.253902,3.929972 -0.92092,1.307789 -4.009005,0.979901 -4.117639,1.126004 -0.02241,0.03014 -0.946518,3.359192 -0.728593,4.879348 0.163939,1.143567 3.469588,0.348668 4.813116,0.419492 0.173245,0.0091 0.137963,-2.486511 0.397413,-2.472793 5.708336,0.301823 4.610773,-8.50791 4.040366,-10.056757 -1.374143,-3.731259 -7.878095,-2.42026 -9.84185,-1.934056 z"
       id="path13"
       sodipodi:nodetypes="ssassssssss" /><path
       style="fill:none;stroke:#001ece;stroke-width:2.64583333;stroke-linecap:round;stroke-linejoin:round;stroke-dasharray:none;stroke-opacity:1"
       d="m 45.443096,49.369878 c 0.19669,-0.432405 0.404249,-1.15049 -0.138009,-2.033568 -0.807826,-1.315564 -3.064584,-1.113425 -4.198712,-0.206316 -3.170338,2.535731 3.265359,4.595175 4.336721,2.239884 z"
       id="path14"
       sodipodi:nodetypes="ssss" /></g></svg>
