<?xml version="1.0" encoding="UTF-8" standalone="no"?>
<!-- Created with Inkscape (http://www.inkscape.org/) -->

<svg
   width="183.83133mm"
   height="133.55144mm"
   viewBox="0 0 183.83133 133.55143"
   version="1.1"
   id="svg1"
   xml:space="preserve"
   inkscape:version="1.4 (86a8ad7, 2024-10-11)"
   sodipodi:docname="tcn.svg"
   inkscape:export-filename="tcn.png"
   inkscape:export-xdpi="96"
   inkscape:export-ydpi="96"
   xmlns:inkscape="http://www.inkscape.org/namespaces/inkscape"
   xmlns:sodipodi="http://sodipodi.sourceforge.net/DTD/sodipodi-0.dtd"
   xmlns="http://www.w3.org/2000/svg"
   xmlns:svg="http://www.w3.org/2000/svg"><sodipodi:namedview
     id="namedview1"
     pagecolor="#ffffff"
     bordercolor="#666666"
     borderopacity="1.0"
     inkscape:showpageshadow="2"
     inkscape:pageopacity="0.0"
     inkscape:pagecheckerboard="0"
     inkscape:deskcolor="#d1d1d1"
     inkscape:document-units="mm"
     inkscape:zoom="0.64"
     inkscape:cx="566.40625"
     inkscape:cy="-92.1875"
     inkscape:window-width="1718"
     inkscape:window-height="1360"
     inkscape:window-x="1713"
     inkscape:window-y="0"
     inkscape:window-maximized="0"
     inkscape:current-layer="layer1"
     inkscape:export-bgcolor="#ffffff8a" /><defs
     id="defs1" /><g
     inkscape:label="Layer 1"
     inkscape:groupmode="layer"
     id="layer1"
     transform="translate(-8.54738,-3.3135672)"><path
       style="display:inline;fill:#f39e05;fill-opacity:1;stroke:#000000;stroke-width:5;stroke-linecap:butt;stroke-linejoin:miter;stroke-dasharray:none;stroke-opacity:1"
       d="M 24.85263,86.025846 C 25.600392,85.182812 10.65547,74.637077 11.06196,71.208067 11.770587,65.230328 22.03085,62.89154 21.646585,61.267771 20.64274,57.025872 16.988165,49.783384 16.319939,43.70117 c -0.411753,-3.747783 -2.1116,-12.78052 -0.110952,-13.235727 0.722979,-0.164499 5.739101,5.04579 7.908256,3.443763 2.227548,-1.645153 2.774506,-17.885585 3.44532,-20.943921 0.75589,-3.4462131 11.152032,10.778223 15.594607,7.389305 2.783299,-2.123176 2.013162,-10.3782882 6.709311,-10.9026255 5.405044,-0.6034873 6.622355,13.4834665 12.829285,14.3026125 4.051021,0.534625 8.409533,-7.021975 9.0213,-6.573308 5.314686,3.897762 4.18666,5.136048 7.298638,7.525305 4.629162,3.554094 7.06846,-22.8060043 10.834626,-18.4052642 4.008495,4.6839002 10.3665,17.6124572 10.42663,17.9972662 0.22191,1.420241 11.96524,-12.617641 19.31193,-15.1412769 6.29983,-2.1640353 1.64961,17.2911409 3.85332,17.4532679 4.50399,0.33136 25.23618,-9.063175 26.83723,-3.490653 1.03474,3.601446 -11.53941,7.652825 -7.9333,8.4773 4.8338,1.105166 25.74433,-2.082295 29.73855,2.311992 2.42577,2.668732 -11.79462,7.828783 -8.29597,8.703967 7.2232,1.80688 27.5661,0.437935 26.02123,3.989318 -2.484,5.710322 -17.73706,11.608871 -14.8697,13.463987 1.02001,0.659926 14.38371,8.767291 12.18311,15.602349 -2.56551,7.968435 -21.58407,1.162255 -19.13421,5.879645 2.87969,5.545043 12.61717,15.995075 12.79951,20.179148 0.18234,4.18407 -16.5609,-3.195652 -16.01039,1.2071 0.68951,5.51443 6.57397,12.50816 3.72377,18.73949 -2.50753,5.48214 -19.95259,-5.89256 -22.11348,-5.80264 -0.71771,0.0299 1.41261,10.64718 0.85356,14.32528 -0.13088,0.86106 -5.88249,5.52307 -9.21497,0 -1.64882,-2.73265 -2.30357,-6.63486 -5.14332,-7.78631 -10.32261,-4.18557 -11.52421,12.30974 -15.82905,11.77562 -2.30235,-0.28566 4.93094,-16.17021 -2.97455,-17.7706 -4.76469,0.26538 -7.84503,14.02499 -11.15731,16.31994 -1.78963,1.23997 -3.049537,-16.64815 -8.128054,-15.67883 -8.847317,1.68865 -8.788266,19.53588 -13.805168,17.12949 -3.762672,-1.80479 0.269299,-9.75893 0,-12.51195 -0.27171,-2.77767 -5.74386,-2.66957 -8.277191,-2.47455 -8.010453,1.67339 -22.269147,20.07054 -19.400707,12.62918 l 6.534811,-16.95272 c 1.96959,-5.10954 -23.007847,7.1435 -27.245621,3.1371 -3.076194,-2.90823 7.755702,-11.36668 6.278366,-11.79762 0,0 -16.002849,-0.36302 -20.383425,-5.62131 -6.305297,-7.568654 1.322938,-8.893331 6.356699,-14.568444 z"
       id="path1"
       sodipodi:nodetypes="sssssssssssssssssssssssszsssssssssssssssssss"
       inkscape:label="outline" /><path
       style="fill:#f3d605;fill-opacity:1;stroke:#000000;stroke-width:5;stroke-linecap:butt;stroke-linejoin:miter;stroke-dasharray:none;stroke-opacity:1"
       d="m 37.57109,54.501604 c -0.113952,7.810396 10.386646,1.768749 8.578072,5.337467 -1.841106,3.632908 -8.563613,39.306904 19.311926,33.50191 2.389555,-0.497617 2.687828,-7.067581 1.949325,-9.88263 -0.746378,-2.845068 -7.536108,-0.0381 -8.839964,-2.674658 -1.834048,-3.708677 -1.76155,-17.390071 -1.042664,-21.261955 0.393296,-2.11827 8.086707,1.021969 9.111966,-1.585957 1.106733,-2.815168 2.665627,-6.388888 1.45066,-8.159972 -1.301942,-1.897869 -7.77176,0.14523 -9.791961,-0.543996 -2.700016,-0.921156 1.174234,-6.25284 -0.770665,-7.842639 -2.282915,-1.866099 -5.034162,-1.452896 -9.293298,-1.087995 -2.896004,0.248115 -2.419341,5.260619 -3.354656,8.930634 -0.518632,2.035022 -7.178241,-3.674785 -7.308741,5.269791 z"
       id="path2"
       sodipodi:nodetypes="sssssssssssss"
       inkscape:label="t" /><path
       style="fill:#8ec430;fill-opacity:1;stroke:#000000;stroke-width:5;stroke-linecap:butt;stroke-linejoin:miter;stroke-dasharray:none;stroke-opacity:1"
       d="m 100.14785,57.437117 c 0.0315,0.297509 1.82768,7.4852 0,9.537545 -2.654987,2.98135 -12.026488,3.049747 -11.723166,7.942476 0.148779,2.39988 3.040956,6.949091 13.121596,2.965237 2.3154,-0.91504 1.87764,10.591988 -1.39843,13.554618 C 99.361831,92.14781 85.71135,96.650177 77.383711,86.133012 73.203916,80.854252 74.032533,74.867836 76.159716,68.951741 79.5291,59.580847 99.724555,53.442112 100.14785,57.437117 Z"
       id="path3"
       sodipodi:nodetypes="ssssssss"
       inkscape:label="c" /><path
       style="fill:#0074cd;fill-opacity:1;stroke:#000000;stroke-width:5;stroke-linecap:butt;stroke-linejoin:miter;stroke-dasharray:none;stroke-opacity:1"
       d="m 113.16029,61.988883 c -0.1578,10.086858 0.0966,27.590233 0.34555,31.520848 0.19207,3.032837 12.32945,1.856191 12.66417,0.212444 1.22021,-5.992224 1.453,-7.717696 3.73853,-11.094385 3.07468,-4.542605 6.28869,-5.125171 8.52862,0 1.45145,3.321042 -0.71685,9.368763 0.97053,10.794144 0.93577,0.790475 11.0918,-0.643723 11.57186,-1.235197 2.7588,-3.399129 1.66261,-9.390235 0.272,-13.888703 -2.76127,-8.932344 -6.81431,-15.100483 -15.03359,-16.498468 -4.56025,-0.775635 -7.16863,3.373229 -10.04795,5.227307 -2.11322,1.360763 0.004,-7.52946 -1.60733,-7.818294 -3.69997,-0.663383 -11.3327,-1.6745 -11.40239,2.780304 z"
       id="path4"
       sodipodi:nodetypes="ssssssssssss"
       inkscape:label="n" /></g></svg>
