<!-- Created with PixiEditor (https://pixieditor.net) -->
<svg version="1.1" viewBox="0 0 88 85" xmlns="http://www.w3.org/2000/svg">
  <path d="M2.95852 23.2487C2.95852 23.2487 4.8296 19.7253 6.33921 18.5035C8.48332 16.7682 11.1732 15.23 13.9315 15.2121C16.0485 15.1983 18.0911 16.4005 19.7909 17.6624C21.7748 19.1353 24.5071 23.3811 24.5071 23.3811" fill-rule="nonzero" transform="matrix(3.60498, 0, 0, 3.6049802, -5.8963156, -4.9221005)" fill="#ffffff" fill-opacity="0" stroke="#001ece" stroke-width="2.6458332538604736" stroke-linecap="round" stroke-linejoin="miter" opacity="1" id="path2" />
  <path d="M12.8718 2.71566C10.9337 2.97672 8.79977 5.01405 9.22881 6.94369C9.67189 8.93645 12.5665 10.6843 14.5069 10.0499C16.3219 9.45654 17.4068 6.59066 16.774 4.78901C16.2859 3.39927 14.3315 2.51902 12.8718 2.71566Z" fill-rule="nonzero" transform="matrix(3.60498, 0, 0, 3.6049802, -5.8963156, -4.9221005)" fill="#ffffff" fill-opacity="0" stroke="#001ece" stroke-width="2.6458332538604736" stroke-linecap="butt" stroke-linejoin="miter" opacity="1" id="path3" />
</svg>