<!-- Created with PixiEditor (https://pixieditor.net) -->
<svg version="1.1" viewBox="0 0 86 83" xmlns="http://www.w3.org/2000/svg">
  <path d="M5.55775 9.16096C4.82344 9.68281 5.0463 17.293 5.2301 17.4015C6.83475 18.349 12.0925 17.3436 14.6156 17.7974C18.3046 18.4611 23.2907 21.6658 25.1773 21.5674C26.4072 21.5033 25.743 6.82142 25.7431 4.5992C25.7431 3.48734 18.1396 8.37896 14.8603 9.16096C14.6067 9.22143 6.60241 8.41856 5.55776 9.16096L5.55775 9.16096Z" fill-rule="nonzero" transform="matrix(3.6307507, 0, 0, 3.630751, -13.52663, -11.301426)" fill="#ffffff" fill-opacity="0" stroke="#dbdb00" stroke-width="2.645829916000366" stroke-linecap="butt" stroke-linejoin="miter" opacity="1" id="path1" />
  <path d="M7.10106 17.804L6.57667 24.4524L11.0023 24.4524L11.4618 17.7019" fill-rule="nonzero" transform="matrix(3.6307507, 0, 0, 3.630751, -13.52663, -11.301426)" fill="#ffffff" fill-opacity="0" stroke="#dbdb00" stroke-width="2.6458332538604736" stroke-linecap="butt" stroke-linejoin="round" opacity="1" id="path2" />
</svg>