<!-- Created with PixiEditor (https://pixieditor.net) -->
<svg version="1.1" viewBox="0 0 80 80" xmlns="http://www.w3.org/2000/svg">
  <path d="M8.03687 7.0548C2.15436 11.5957 3.02738 39.9832 25.1524 47.1832C28.9564 48.4211 3.40258 57.9852 7.60258 66.5352C13.2271 77.985 24.8431 75.9615 29.5813 72.3855C34.55 68.6355 40.4498 48.9899 40.4498 48.9899C40.4498 48.9899 46.4543 75.504 58.8293 75.254C71.2043 75.004 75.4793 66.704 71.8793 59.804C68.2793 52.904 53.5065 47.4724 53.5065 47.4724C53.5065 47.4724 69.6793 41.5207 73.6793 32.354C77.6793 23.1874 77.6192 8.52858 71.4724 5.07628C65.3891 1.65961 58.0558 6.49294 51.3058 15.3263C44.5558 24.1596 43.0768 35.3057 40 32.3057C38.5693 30.9107 35.7797 23.3215 30.8301 15.7638C26.3569 8.93347 18.2019 -0.791871 8.03687 7.0548Z" fill-rule="nonzero" transform="matrix(1, 0, 0, 1, 0, 0)" fill="#0886fe" fill-opacity="1" stroke="#0886fe" stroke-width="5" stroke-linecap="round" stroke-linejoin="round" opacity="1" id="Path" />
</svg>