<!-- Created with PixiEditor (https://pixieditor.net) -->
<svg version="1.1" viewBox="0 0 80 80" xmlns="http://www.w3.org/2000/svg">
  <path d="M18.7202 8.44288C8.99251 9.98976 4.05536 34.4321 4.24286 40C4.43036 45.5679 10.1466 70.3648 18.7202 69.4273C27.2938 68.4898 15.3876 55.8664 15.3876 55.8664C15.3876 55.8664 30.3407 57.5679 37.3251 57.4741C44.3094 57.3804 58.7001 55.8664 58.7001 55.8664C58.7001 55.8664 49.3251 68.2557 58.7001 67.0057C68.0751 65.7557 76.7431 53.319 75.2151 38.5C73.6871 23.681 71.8864 8.44288 60.6364 8.44288C49.3864 8.44288 51.4886 15.3335 40 15.3335C28.5114 15.3335 28.4479 6.89601 18.7202 8.44288Z" fill-rule="nonzero" transform="matrix(0.99999994, 0, 0, 0.99999994, 0.18561888, 1.146677)" fill="#0000ff" fill-opacity="1" stroke="#0000ff" stroke-width="7" stroke-linecap="round" stroke-linejoin="round" opacity="1" id="Path" />
  <ellipse cx="25.094015763561128" cy="37.49702262878418" rx="8.012036011974214" ry="8.012033462524414" transform="matrix(1, 0, -8.84182E-16, 0.99999994, 1.382045, 1.146677)" fill="#ffffff" fill-opacity="1" stroke="#ffffff" stroke-width="0" opacity="1" id="Ellipse" />
  <ellipse cx="54.451161499177964" cy="37.49702305243203" rx="8.012036438142808" ry="8.012033038876568" transform="matrix(1, 0, 0, 0.99999994, 1.2034714, 1.146677)" fill="#ffffff" fill-opacity="1" stroke="#ffffff" stroke-width="0" opacity="1" id="Ellipse" />
</svg>