<!-- Created with PixiEditor (https://pixieditor.net) -->
<svg version="1.1" viewBox="0 0 80 80" xmlns="http://www.w3.org/2000/svg">
  <path d="M0.501595 47.5899C3.18746 71.5292 16.678 79.1197 39.4421 80.1976C62.2064 81.2756 80.6734 61.199 79.5955 43.1434C78.5175 25.088 77.7181 0.960053 40.1159 0.0258389C2.51375 -0.908376 -2.18427 23.6507 0.501595 47.5899Z" fill-rule="nonzero" transform="matrix(0.96810913, 0, 0, 0.96810925, 1.2679361, 1.2794495)" fill="#000000" fill-opacity="1" stroke="#000000" stroke-width="0" stroke-linecap="round" stroke-linejoin="round" opacity="1" id="Path" />
  <path d="M27.1551 81.43L27.1551 68.1208C27.1551 68.1208 16.5668 68.4737 15.6845 61.1502C14.8553 54.2679 22.0438 65.9206 26.2825 64.5564C28.1921 63.9418 30.4092 58.3611 29.6151 57.8758C26.3852 55.902 16.6979 50.7041 14.6256 42.3561C11.5374 29.9149 22.8315 26.2973 23.8904 25.9443C24.9492 25.5914 22.5139 16.7384 24.1139 15.0384C25.7139 13.3384 35.4139 23.4384 37.4139 22.7384L49.7139 23.1384C49.7139 23.1384 57.2987 16.3956 58.1369 18.1603C58.9751 19.925 60.432 23.2297 60.8732 25.3915C61.3143 27.5532 69.1663 29.8956 68.6369 40.0426C68.1075 50.1897 56.4898 54.2041 53.9184 56.6327C53.9184 56.6327 55.6579 80.1443 55.1579 81.43" fill-rule="nonzero" transform="matrix(1, 0, 0, 1, 0, 0)" fill="#ffffff" fill-opacity="1" stroke="#ffffff" stroke-width="3" stroke-linecap="round" stroke-linejoin="round" opacity="1" clip-path="url(#07fc42ac-595f-4c7e-9ebb-0c8e67c0ebfa_clip)" id="Path" />
  <defs>
    <clipPath id="07fc42ac-595f-4c7e-9ebb-0c8e67c0ebfa_clip">
      <path d="M0.501595 47.5899C3.18746 71.5292 16.678 79.1197 39.4421 80.1976C62.2064 81.2756 80.6734 61.199 79.5955 43.1434C78.5175 25.088 77.7181 0.960053 40.1159 0.0258389C2.51375 -0.908376 -2.18427 23.6507 0.501595 47.5899Z" fill-rule="nonzero" transform="matrix(0.96810913, 0, 0, 0.96810925, 1.2679361, 1.2794495)" fill="#000000" fill-opacity="1" stroke="#000000" stroke-width="0" stroke-linecap="round" stroke-linejoin="round" opacity="1" id="Path" />
    </clipPath>
  </defs>
</svg>