<!-- Created with PixiEditor (https://pixieditor.net) -->
<svg version="1.1" viewBox="0 0 80 80" xmlns="http://www.w3.org/2000/svg">
  <path d="M21.3279 28.5885L21.6006 50.4067C21.6006 50.4067 32.3052 29.134 35.7824 31.0431C39.2597 32.9522 41.3734 47.3385 40.8279 49.1113C40.2824 50.884 48.5226 30.968 50.5779 32.4067C52.6233 33.8385 57.9415 43.1113 57.0552 49.9295" fill-rule="nonzero" transform="matrix(1, 0, 0, 0.99999994, -0.24298906, -0.56513596)" fill="#ffffff" fill-opacity="0" stroke="#000000" stroke-width="9" stroke-linecap="round" stroke-linejoin="round" opacity="1" id="Path" />
  <path d="M59.1419 11.0568C59.1419 11.0568 69.907 10.9432 72.2252 13.0568C74.5434 15.1704 73.7841 67.8864 71.5341 69.1818C69.2841 70.4773 60.9659 70 60.9659 70" fill-rule="nonzero" transform="matrix(1, 0, 0, 0.99999994, -0.24298906, -0.56513596)" fill="#ffffff" fill-opacity="0" stroke="#000000" stroke-width="9" stroke-linecap="round" stroke-linejoin="round" opacity="1" id="Path" />
  <path d="M21.1256 11.3193C21.1256 11.3193 11.5263 10.1272 9.41271 12.2408C7.29907 14.3544 5.66271 68.6272 7.98089 69.5817C10.2991 70.5363 21.4127 69.9908 21.4127 69.9908" fill-rule="nonzero" transform="matrix(1, 0, 0, 0.99999994, -0.24298906, -0.56513596)" fill="#ffffff" fill-opacity="0" stroke="#000000" stroke-width="9" stroke-linecap="round" stroke-linejoin="round" opacity="1" id="Path" />
</svg>