<!-- Created with PixiEditor (https://pixieditor.net) -->
<svg version="1.1" viewBox="0 0 80 80" xmlns="http://www.w3.org/2000/svg">
  <path d="M40.8565 27.2353C39.0156 27.4399 27.2201 34.8717 27.3565 41.0762C27.4928 47.2808 39.6498 54.4034 42.377 54.4034C45.1043 54.4034 55.7883 46.9399 55.8565 40.7353C55.9246 34.5308 42.6973 27.0308 40.8565 27.2353Z" fill-rule="nonzero" transform="matrix(1, 0, 0, 1, 0, 1)" fill="#ff5951" fill-opacity="1" stroke="#ff5951" stroke-width="5" stroke-linecap="round" stroke-linejoin="round" opacity="1" id="Path" />
  <path d="M68.2898 25.5302C68.2898 25.5302 47.4019 9.03077 41.3337 8.96258C35.2655 8.8944 13.9928 23.758 13.9928 23.758" fill-rule="nonzero" transform="matrix(1, 0, 0, 1, 0, 1)" fill="#ffffff" fill-opacity="0" stroke="#ff5951" stroke-width="10" stroke-linecap="round" stroke-linejoin="round" opacity="1" id="Path" />
  <path d="M51.0398 71.8636C51.0398 71.8636 67.5287 61.8414 69.1224 56.8257C70.7162 51.8101 69.8412 41.507 69.8412 41.507" fill-rule="nonzero" transform="matrix(1, 0, 0, 1, 0, 1)" fill="#ffffff" fill-opacity="0" stroke="#ff5951" stroke-width="10" stroke-linecap="round" stroke-linejoin="round" opacity="1" id="Path" />
  <path d="M12.0796 40.5C12.0796 40.5 10.1746 49.3944 11.2655 54.3035C12.3565 59.2126 33.7614 71.0568 33.7614 71.0568" fill-rule="nonzero" transform="matrix(1, 0, 0, 1, 0, 1)" fill="#ffffff" fill-opacity="0" stroke="#ff5951" stroke-width="10" stroke-linecap="round" stroke-linejoin="round" opacity="1" id="Path" />
</svg>