<?xml version="1.0" encoding="UTF-8" standalone="no"?>
<!-- Created with PixiEditor (https://pixieditor.net) -->

<svg
   version="1.1"
   viewBox="0 0 80 80"
   id="svg2"
   sodipodi:docname="steam.svg"
   inkscape:version="1.4.3 (0d15f75, 2025-12-25)"
   xmlns:inkscape="http://www.inkscape.org/namespaces/inkscape"
   xmlns:sodipodi="http://sodipodi.sourceforge.net/DTD/sodipodi-0.dtd"
   xmlns:xlink="http://www.w3.org/1999/xlink"
   xmlns="http://www.w3.org/2000/svg"
   xmlns:svg="http://www.w3.org/2000/svg">
  <sodipodi:namedview
     id="namedview2"
     pagecolor="#ffffff"
     bordercolor="#666666"
     borderopacity="1.0"
     inkscape:showpageshadow="2"
     inkscape:pageopacity="0.0"
     inkscape:pagecheckerboard="0"
     inkscape:deskcolor="#d1d1d1"
     inkscape:zoom="6.6875103"
     inkscape:cx="30.355093"
     inkscape:cy="77.756889"
     inkscape:window-width="1718"
     inkscape:window-height="1360"
     inkscape:window-x="-7"
     inkscape:window-y="0"
     inkscape:window-maximized="0"
     inkscape:current-layer="svg2" />
  <path
     d="M39.1229 0.772658C38.2229 0.772658 2.56879 -1.47734 0.347905 40.3727C-1.87298 82.2227 37.9201 79.5992 40.0979 79.5227C77.227 78.2185 80 56.1209 78.6291 41.5709C78.6291 41.5709 74.2229 0.772658 39.1229 0.772658Z"
     fill-rule="nonzero"
     transform="matrix(1, 0, 0, 1, 0, 0.028846145)"
     fill="#000000"
     fill-opacity="1"
     stroke="#000000"
     stroke-width="0"
     stroke-linecap="round"
     stroke-linejoin="round"
     opacity="1"
     id="Path"
     style="fill:url(#linearGradient3)" />
  <path
     d="M0.258107 42.2168C0.258107 42.2168 16.7837 49.4282 18.7713 50.151C20.7588 50.8738 21.8589 51.0543 25.2888 47.4207C26.8752 45.7401 33.0525 46.1743 33.0525 46.1743C33.0525 46.1743 36.4385 22.8478 42.9885 18.6978C49.5385 14.5478 56.9586 14.4366 62.6497 19.7307C68.3409 25.0248 70.8998 31.2895 67.4145 37.1131C63.9292 42.9366 47.385 53.0395 43.5468 54.0542C43.5468 54.0542 42.1238 60.6432 38.3344 63.6827C34.5449 66.7222 21.8263 62.5599 21.2783 59.1561C20.7302 55.7522 2.88925 51.5503 -0.419574 49.168L0.258107 42.2168ZM31.5657 47.5356C26.0951 47.6239 22.9187 51.6827 23.4922 57.065C24.0657 62.4474 29.2716 63.9033 32.0069 64.0797C34.7422 64.2562 40.2569 62.6239 40.4775 56.2709C40.6981 49.918 37.0363 47.4474 31.5657 47.5356ZM32.1146 53.2944C30.2559 53.2618 28.8863 54.1097 28.7233 55.577C28.5602 57.0444 29.7015 58.7401 31.9841 58.8053C34.2668 58.8705 35.0494 57.1749 35.1146 55.8379C35.1798 54.501 33.9733 53.327 32.1146 53.2944ZM52.8288 19.2532C47.184 19.3322 41.6182 25.1348 41.4604 31.0953C41.3025 37.0558 47.5393 42.2664 52.9472 42.3848C58.3551 42.5032 64.434 38.3979 64.4735 31.0953C64.513 23.7927 58.4735 19.1743 52.8288 19.2532ZM52.9867 25.569C49.0788 25.4506 47.2235 28.4901 47.184 31.2532C47.1446 34.0164 49.5525 36.6611 53.1446 36.7006C56.7367 36.7401 58.7104 33.1085 58.7498 30.8585C58.7893 28.6085 56.8946 25.6874 52.9867 25.569Z"
     fill-rule="nonzero"
     transform="matrix(0.9999981, 0.0020050248, -0.0020050062, 0.999998, 0.0806714, -0.06867123)"
     fill="#ffffff"
     fill-opacity="1"
     stroke="#ffffff"
     stroke-width="3"
     stroke-linecap="round"
     stroke-linejoin="round"
     opacity="1"
     clip-path="url(#251f7792-88a2-477a-9e13-6c3eb643c560_clip)"
     id="path1" />
  <defs
     id="defs2">
    <linearGradient
       id="linearGradient2"
       inkscape:collect="always">
      <stop
         style="stop-color:#07152b;stop-opacity:1;"
         offset="0.25431034"
         id="stop2" />
      <stop
         style="stop-color:#0a7aaa;stop-opacity:1;"
         offset="1"
         id="stop3" />
    </linearGradient>
    <clipPath
       id="251f7792-88a2-477a-9e13-6c3eb643c560_clip">
      <path
         d="M39.1229 0.772658C38.2229 0.772658 2.56879 -1.47734 0.347905 40.3727C-1.87298 82.2227 37.9201 79.5992 40.0979 79.5227C77.227 78.2185 80 56.1209 78.6291 41.5709C78.6291 41.5709 74.2229 0.772658 39.1229 0.772658Z"
         fill-rule="nonzero"
         transform="matrix(1, 0, 0, 1, 0, 0.028846145)"
         fill="#000000"
         fill-opacity="1"
         stroke="#000000"
         stroke-width="0"
         stroke-linecap="round"
         stroke-linejoin="round"
         opacity="1"
         id="path2" />
    </clipPath>
    <linearGradient
       inkscape:collect="always"
       xlink:href="#linearGradient2"
       id="linearGradient3"
       x1="39.575031"
       y1="0.84854752"
       x2="39.575031"
       y2="79.481949"
       gradientUnits="userSpaceOnUse" />
  </defs>
</svg>
